<svg width="30" height="30" viewBox="0 0 37 37" fill="none" xmlns="http://www.w3.org/2000/svg">
<path d="M4.625 9.25H7.70833H32.375" stroke="black" stroke-width="2" stroke-linecap="round" stroke-linejoin="round"/>
<path d="M29.2916 9.25V30.8333C29.2916 31.6511 28.9668 32.4353 28.3886 33.0136C27.8103 33.5918 27.0261 33.9167 26.2083 33.9167H10.7916C9.9739 33.9167 9.18964 33.5918 8.6114 33.0136C8.03316 32.4353 7.70831 31.6511 7.70831 30.8333V9.25M12.3333 9.25V6.16666C12.3333 5.34891 12.6582 4.56465 13.2364 3.98642C13.8146 3.40818 14.5989 3.08333 15.4166 3.08333H21.5833C22.4011 3.08333 23.1853 3.40818 23.7636 3.98642C24.3418 4.56465 24.6666 5.34891 24.6666 6.16666V9.25" stroke="black" stroke-width="2" stroke-linecap="round" stroke-linejoin="round"/>
<path d="M15.4167 16.9583V26.2083" stroke="black" stroke-width="2" stroke-linecap="round" stroke-linejoin="round"/>
<path d="M21.5833 16.9583V26.2083" stroke="black" stroke-width="2" stroke-linecap="round" stroke-linejoin="round"/>
</svg>
