<svg width="30" height="30" viewBox="0 0 37 37" fill="none" xmlns="http://www.w3.org/2000/svg">
<path d="M16.9583 6.16667H6.16668C5.34893 6.16667 4.56467 6.49152 3.98643 7.06976C3.40819 7.648 3.08334 8.43225 3.08334 9.25001V30.8333C3.08334 31.6511 3.40819 32.4353 3.98643 33.0136C4.56467 33.5918 5.34893 33.9167 6.16668 33.9167H27.75C28.5678 33.9167 29.352 33.5918 29.9303 33.0136C30.5085 32.4353 30.8333 31.6511 30.8333 30.8333V20.0417" stroke="black" stroke-width="2" stroke-linecap="round" stroke-linejoin="round"/>
<path d="M28.5208 3.85417C29.1342 3.24086 29.966 2.8963 30.8333 2.8963C31.7007 2.8963 32.5325 3.24086 33.1458 3.85417C33.7592 4.46748 34.1037 5.29931 34.1037 6.16667C34.1037 7.03403 33.7592 7.86586 33.1458 8.47917L18.5 23.125L12.3333 24.6667L13.875 18.5L28.5208 3.85417Z" stroke="black" stroke-width="2" stroke-linecap="round" stroke-linejoin="round"/>
</svg>
